<?xml version="1.0" standalone="no"?>
<!DOCTYPE svg PUBLIC "-//W3C//DTD SVG 20010904//EN"
 "http://www.w3.org/TR/2001/REC-SVG-20010904/DTD/svg10.dtd">
<svg version="1.0" xmlns="http://www.w3.org/2000/svg"
 width="152.000000pt" height="152.000000pt" viewBox="0 0 152.000000 152.000000"
 preserveAspectRatio="xMidYMid meet">
<metadata>
Created by potrace 1.14, written by Peter Selinger 2001-2017
</metadata>
<g transform="translate(0.000000,152.000000) scale(0.100000,-0.100000)"
fill="#000000" stroke="none">
<path d="M632 1505 c-73 -17 -189 -77 -237 -122 -122 -116 -176 -233 -181
-395 -6 -184 81 -356 234 -462 24 -16 45 -26 48 -23 3 3 55 130 114 282 59
151 114 282 121 291 7 8 22 14 33 12 22 -3 33 -27 145 -323 83 -215 103 -265
110 -265 18 0 105 66 142 108 271 307 136 776 -256 892 -57 17 -211 20 -273 5z"/>
<path d="M610 550 c-57 -61 -243 -384 -281 -489 -10 -26 -9 -26 15 4 14 17 25
33 26 37 1 22 114 136 176 179 24 16 82 48 128 70 l84 40 -34 87 c-45 114 -64
126 -114 72z"/>
<path d="M890 444 c-63 -25 -119 -49 -123 -53 -12 -11 121 -353 145 -373 17
-15 41 -18 154 -18 74 0 134 2 134 5 0 2 -14 39 -31 82 -17 43 -51 132 -75
198 -25 66 -51 134 -59 152 -8 17 -15 36 -15 42 0 16 -2 15 -130 -35z"/>
</g>
</svg>
