<svg id="Layer_1" data-name="Layer 1" xmlns="http://www.w3.org/2000/svg" viewBox="0 0 841.89 595.28"><defs><style>.cls-1{fill:#bc2449;}</style></defs><path class="cls-1" d="M461,353.9c-15.54,5.65-28.76,10.78-40.19,15.65L409,338.39a8.92,8.92,0,0,0-15.54-2.09c-14.29,19.6-41.12,59.82-60.28,108.94,21.84-37.15,36.74-54,87.65-75.69l25.31,66.76a13.86,13.86,0,0,0,13.51,8.92h47.24l-36.39-95.46c-3.08,1.44-6.22,2.82-9.49,4.12"/><path class="cls-1" d="M370.59,348.93l42.86-110.19a8,8,0,0,1,14.84.06l42,110.63a105.79,105.79,0,1,0-99.73-.5"/></svg>